<svg xmlns="http://www.w3.org/2000/svg" viewBox="0 0 256 256">
  <rect width="256" height="256" rx="60" fill="#1f5ea8" />
  <defs>
    <g id="spade-shape" fill="#221d1a">
      <circle cx="-16" cy="-4" r="16" />
      <circle cx="16" cy="-4" r="16" />
      <path d="M0 -46 L-30 -4 H30 Z" />
      <path d="M-10 10 C-10 24 -18 36 -28 46 C-12 45 -3 39 0 30 C3 39 12 45 28 46 C18 36 10 24 10 10 Z" />
    </g>
  </defs>
  <g transform="translate(48 34)">
    <rect x="8" y="12" width="152" height="180" rx="28" fill="#fffdf8" />
    <rect x="8" y="12" width="152" height="180" rx="28" fill="none" stroke="rgba(34,29,26,0.14)" stroke-width="4" />
    <text x="34" y="60" font-family="Trebuchet MS, 'Segoe UI', sans-serif" font-size="44" font-weight="800" fill="#b63a3a">2</text>
    <use href="#spade-shape" transform="translate(38 84) scale(0.33)" />
    <use href="#spade-shape" transform="translate(84 128) scale(0.9)" />
  </g>
</svg>
